<?xml version="1.0" standalone="no"?>
<!DOCTYPE svg PUBLIC "-//W3C//DTD SVG 20010904//EN"
 "http://www.w3.org/TR/2001/REC-SVG-20010904/DTD/svg10.dtd">
<svg version="1.0" xmlns="http://www.w3.org/2000/svg"
 width="1024.000000pt" height="1024.000000pt" viewBox="0 0 1024.000000 1024.000000"
 preserveAspectRatio="xMidYMid meet">

<g transform="translate(0.000000,1024.000000) scale(0.100000,-0.100000)"
fill="#000000" stroke="none">
<path d="M4045 9966 c-18 -13 -17 -14 8 -30 31 -21 60 -18 65 8 7 33 -39 47
-73 22z"/>
<path d="M6069 9945 c-15 -8 -29 -24 -32 -35 -3 -14 -30 -32 -81 -55 -74 -33
-76 -36 -76 -70 0 -49 -35 -72 -85 -55 -36 12 -46 35 -23 58 26 26 -20 12 -57
-18 -21 -16 -46 -30 -57 -30 -34 0 -58 -19 -58 -46 0 -24 3 -26 40 -21 24 2
44 0 49 -7 16 -20 0 -56 -31 -72 -16 -8 -36 -30 -43 -48 -11 -25 -27 -39 -73
-59 -33 -15 -71 -27 -85 -27 -16 0 -35 -11 -51 -31 -23 -27 -31 -30 -59 -24
-17 3 -59 6 -92 5 -34 0 -76 6 -96 14 -34 14 -127 14 -150 0 -18 -11 11 -33
43 -32 33 1 58 -22 58 -53 0 -26 -29 -101 -47 -121 -21 -23 -60 -23 -114 2
-30 13 -66 20 -113 20 -39 0 -96 5 -128 12 -46 9 -68 9 -109 -1 -47 -12 -53
-12 -77 6 -46 33 -120 65 -144 61 -17 -2 -24 -11 -26 -32 -4 -29 -4 -29 42
-22 l45 7 12 -41 c18 -59 3 -114 -32 -118 -21 -2 -29 3 -39 27 -9 23 -23 34
-53 43 -52 16 -77 56 -77 124 0 49 -2 52 -55 98 -62 54 -76 55 -170 12 -27
-13 -70 -28 -95 -34 -51 -11 -188 -5 -207 10 -27 22 -10 87 31 120 20 17 19
18 -40 18 -51 0 -66 4 -103 31 -34 26 -48 30 -76 26 -62 -10 -89 -29 -104 -74
-17 -47 -57 -68 -73 -39 -9 16 -38 22 -38 8 0 -4 5 -13 11 -19 14 -14 -4 -74
-30 -97 -16 -15 -25 -16 -59 -6 -71 22 -105 -18 -61 -74 18 -22 28 -26 74 -26
30 0 67 -5 82 -12 36 -16 111 -65 143 -94 22 -20 37 -23 142 -26 108 -3 118
-5 144 -28 15 -14 39 -52 55 -85 37 -81 91 -130 148 -138 35 -4 54 -15 95 -55
45 -44 57 -51 107 -57 57 -6 75 -18 98 -63 19 -36 5 -41 -59 -24 -71 19 -87
11 -70 -34 9 -24 8 -31 -6 -41 -21 -15 -50 -17 -59 -3 -3 5 -38 28 -76 51 -51
30 -77 39 -95 35 -32 -8 -30 -31 5 -57 15 -11 38 -38 50 -60 12 -21 23 -39 24
-39 1 0 17 4 34 9 30 9 36 7 72 -31 38 -40 39 -41 50 -20 19 36 46 45 81 27
16 -9 30 -19 30 -23 0 -4 -16 -17 -35 -30 -37 -24 -41 -32 -25 -63 13 -24 -2
-25 -75 -5 -75 19 -91 31 -115 82 l-23 46 -46 -5 c-46 -5 -46 -5 -114 64 -46
47 -67 75 -63 85 19 49 17 63 -7 86 -14 13 -46 43 -71 67 l-46 43 0 73 c0 79
-11 99 -51 93 -23 -3 -44 -34 -89 -125 -24 -49 -40 -53 -80 -19 -43 36 -96 42
-132 16 -39 -29 -65 -21 -133 40 -57 52 -90 66 -124 55 -40 -12 -18 -78 42
-125 16 -12 49 -29 74 -36 61 -19 132 -65 182 -119 44 -48 47 -56 31 -86 -15
-26 -32 -24 -64 10 -15 15 -44 33 -65 40 -21 6 -55 24 -76 41 -21 16 -48 30
-61 30 -60 0 -128 52 -159 121 -10 21 -22 39 -26 39 -5 0 -16 14 -25 32 -15
29 -15 34 0 65 9 18 16 35 16 37 0 9 -37 12 -55 6 -26 -10 -72 14 -80 40 -4
11 -4 33 0 49 8 35 -13 54 -29 26 -21 -37 -55 -65 -79 -65 -13 0 -44 11 -68
25 -24 14 -67 36 -95 49 -32 15 -68 44 -95 76 -69 82 -125 101 -155 55 -9 -14
-23 -25 -30 -25 -14 0 -20 -39 -6 -41 4 -1 17 -3 29 -4 30 -3 53 -23 53 -45 0
-30 32 -57 85 -73 118 -36 129 -42 152 -88 15 -29 21 -54 18 -75 -5 -27 0 -36
35 -67 41 -38 52 -42 135 -51 50 -6 75 -24 75 -55 1 -9 24 -32 53 -51 55 -37
73 -74 40 -81 -10 -3 -51 -3 -90 -1 -81 4 -91 16 -53 65 31 39 25 47 -34 47
-88 0 -107 -42 -43 -96 l31 -26 -23 -41 c-23 -39 -23 -41 -5 -54 10 -7 29 -13
44 -13 14 0 41 -9 60 -20 19 -11 54 -30 77 -41 l43 -20 43 26 c53 30 66 31
118 4 52 -26 67 -20 75 30 15 94 93 105 115 16 12 -46 39 -75 71 -75 10 0 45
-27 78 -61 45 -45 60 -68 60 -89 0 -68 27 -79 59 -24 26 44 43 35 60 -31 l11
-45 69 0 c54 0 74 -4 95 -21 33 -26 33 -52 -1 -78 -23 -17 -26 -22 -13 -30 25
-17 91 -24 103 -12 23 23 57 12 78 -24 24 -40 21 -39 66 -23 26 9 36 9 45 0
10 -10 7 -17 -10 -34 -19 -20 -25 -21 -53 -11 -34 13 -65 3 -118 -38 -32 -25
-61 -24 -115 5 -47 25 -76 25 -97 0 -17 -21 -48 -17 -88 10 -45 30 -91 42 -91
23 0 -7 -13 -26 -29 -42 l-30 -28 22 -38 c23 -40 45 -49 119 -49 30 0 49 7 74
30 36 31 56 30 107 -5 33 -23 58 -18 93 20 38 41 46 42 99 10 59 -36 92 -50
175 -75 41 -12 88 -26 104 -31 16 -5 62 -9 102 -9 l73 0 42 -45 c28 -30 60
-51 93 -63 76 -26 112 -69 189 -228 15 -31 47 -70 82 -99 31 -27 66 -67 77
-89 11 -22 35 -53 53 -71 22 -20 36 -45 41 -70 4 -22 15 -58 25 -80 10 -22 19
-60 19 -86 0 -48 34 -114 80 -154 30 -27 44 -64 29 -81 -20 -24 -54 -16 -87
22 -27 30 -35 34 -47 24 -23 -19 -18 -56 10 -74 17 -11 25 -26 25 -46 0 -29
-2 -30 -45 -30 -35 0 -47 -4 -56 -22 -10 -18 -8 -24 11 -40 35 -29 78 -24 98
12 9 16 20 30 24 30 3 0 15 -15 26 -34 18 -31 26 -35 78 -42 32 -3 116 -4 188
0 72 4 192 10 266 12 74 3 163 11 198 19 35 8 82 15 106 15 24 0 65 7 92 15
31 10 86 15 154 15 186 -2 176 -3 220 36 l39 36 48 -16 c40 -13 69 -14 176 -7
114 9 133 13 181 39 42 24 70 32 137 37 119 10 155 34 74 49 -39 8 -45 20 -16
36 32 17 61 11 86 -16 l25 -27 63 16 c34 9 79 19 100 22 40 6 46 15 22 35 -9
7 -29 30 -46 51 -29 37 -30 40 -18 81 14 49 35 78 57 78 26 0 123 62 131 84
10 26 6 39 -34 96 -26 37 -42 49 -92 66 -34 12 -74 31 -88 43 -15 11 -34 21
-41 21 -28 0 -12 16 47 45 79 39 78 62 -3 89 l-56 20 -40 -27 c-44 -31 -131
-51 -209 -48 -58 2 -93 -11 -93 -36 0 -8 16 -33 35 -54 54 -60 43 -126 -13
-80 -15 12 -39 29 -54 39 -20 12 -33 33 -43 70 l-16 53 -32 -22 c-18 -13 -45
-33 -60 -46 -16 -13 -38 -23 -50 -23 -36 0 -120 36 -135 58 -12 18 -11 23 7
41 17 17 18 21 5 21 -9 0 -25 -11 -36 -25 -39 -50 -87 -19 -54 35 30 51 17 70
-45 70 -33 0 -101 55 -125 102 -8 15 -31 36 -52 46 -45 21 -52 49 -23 96 12
18 21 43 21 55 0 28 23 36 61 21 52 -22 65 -76 28 -116 -26 -28 -20 -48 23
-74 42 -25 60 -25 83 0 27 30 56 25 91 -17 l31 -37 50 12 c67 17 99 8 128 -38
22 -34 68 -60 83 -46 3 3 0 23 -6 45 -7 21 -12 50 -12 65 0 18 -12 39 -36 61
-31 30 -35 38 -29 66 6 26 2 36 -23 62 -16 18 -32 44 -36 58 -7 32 -43 79 -61
79 -7 0 -25 -25 -40 -56 -36 -74 -27 -99 36 -99 41 0 44 -2 47 -28 2 -16 -2
-35 -9 -43 -15 -19 -68 -18 -90 2 -10 9 -36 18 -59 21 -50 7 -60 25 -36 66 22
38 10 52 -56 67 -62 13 -78 25 -78 56 0 28 -82 93 -118 94 -27 0 -72 -42 -72
-67 0 -10 11 -40 25 -67 14 -27 25 -53 25 -57 0 -17 -31 -16 -52 1 -13 10 -43
23 -66 29 -35 10 -42 16 -42 37 0 35 23 75 75 134 26 29 45 61 45 74 0 28 29
56 57 56 14 0 29 -14 46 -42 14 -24 37 -54 51 -67 31 -30 48 -19 69 43 12 36
12 46 1 67 -7 13 -13 37 -14 52 0 15 -7 41 -15 58 -19 36 -13 49 23 49 48 0
56 12 37 56 -9 21 -24 48 -34 59 -10 11 -21 37 -24 58 -11 73 -45 86 -98 39
l-31 -28 12 -93 c10 -78 10 -95 -1 -102 -21 -13 -45 -11 -91 10 -24 11 -55 22
-70 26 -36 7 -35 28 1 57 19 15 37 44 50 83 22 67 20 73 -40 103 -29 15 -34
23 -37 59 -3 36 1 46 33 78 25 25 35 41 30 53 -4 9 -9 40 -12 67 -8 73 -60
133 -123 141 -57 8 -64 12 -92 54 -28 42 -72 51 -108 22 -21 -17 -22 -20 -7
-48 24 -47 95 -121 122 -128 28 -7 49 -39 41 -64 -3 -10 -21 -26 -38 -36 -18
-11 -45 -32 -60 -48 l-27 -29 -40 21 c-22 11 -52 20 -66 20 -31 0 -68 -35 -61
-58 16 -57 16 -83 1 -111 -18 -36 -22 -37 -54 -15 -21 15 -23 21 -17 76 6 51
4 62 -14 85 -16 21 -21 39 -18 73 2 43 1 45 -27 50 -43 7 -43 34 -1 76 34 34
38 36 87 29 55 -8 78 4 104 55 27 52 -25 82 -94 54 -47 -19 -80 -16 -95 9 -9
15 -4 24 34 57 25 22 67 47 94 56 46 16 48 18 30 31 -20 15 -123 10 -171 -8
-24 -9 -53 -3 -53 12 0 5 13 15 29 23 15 8 34 29 41 46 7 17 20 34 29 39 18 8
125 6 182 -4 34 -6 41 -3 112 62 62 55 76 74 77 98 0 39 61 105 96 105 38 0
29 -41 -14 -59 -36 -16 -51 -53 -32 -76 11 -13 38 -15 159 -13 132 2 150 0
192 -19 37 -18 52 -20 85 -13 21 5 56 10 76 10 43 0 72 32 66 72 -3 21 -7 23
-55 20 -84 -5 -143 38 -143 105 0 42 27 57 85 49 58 -9 91 5 104 47 6 18 23
49 36 67 29 39 31 62 9 84 -29 30 -60 16 -112 -49 -18 -21 -42 -3 -42 31 0 13
-9 33 -20 44 -17 17 -28 20 -70 14 -47 -6 -51 -5 -77 25 -31 35 -29 35 -64 16z
m149 -194 c-2 -9 -11 -17 -21 -19 -21 -4 -35 27 -17 38 19 12 42 0 38 -19z
m-1662 -707 c12 -17 12 -23 0 -39 -14 -19 -15 -19 -35 -1 -29 26 -29 69 0 64
12 -2 28 -12 35 -24z m601 -10 c7 -20 -13 -34 -49 -34 -21 0 -28 5 -28 18 0
26 9 32 42 32 17 0 31 -6 35 -16z m770 -206 c-3 -8 -6 -5 -6 6 -1 11 2 17 5
13 3 -3 4 -12 1 -19z m-2419 0 c22 -22 14 -40 -15 -36 -34 4 -48 48 -16 48 11
0 24 -5 31 -12z m1362 -113 c0 -14 -29 -35 -49 -35 -15 0 -14 23 1 38 17 17
48 15 48 -3z m856 -80 c17 -41 18 -75 3 -109 -10 -21 -8 -29 10 -52 11 -15 21
-33 21 -40 0 -8 11 -24 25 -36 39 -34 28 -78 -21 -78 -16 0 -23 8 -27 29 -7
34 -45 51 -113 51 -41 0 -74 19 -74 41 0 5 16 19 35 30 l34 21 -21 28 c-20 27
-20 30 -4 54 33 52 79 96 98 96 12 0 24 -12 34 -35z m-280 -169 c26 -20 7 -51
-32 -51 -21 0 -33 8 -47 33 l-19 32 39 0 c22 0 48 -6 59 -14z m-186 -88 c0
-25 -66 -98 -88 -98 -20 0 -7 46 24 88 29 38 64 43 64 10z m460 -107 c0 -10 7
-24 15 -31 17 -14 20 -60 4 -60 -13 0 -52 87 -44 100 10 17 25 11 25 -9z
m-1745 -34 c0 -26 -20 -25 -23 2 -3 16 1 22 10 19 7 -3 13 -12 13 -21z m825
-61 c0 -28 -33 -56 -67 -56 -67 0 -24 77 45 79 17 1 22 -5 22 -23z m10 -192
c11 -12 10 -18 -3 -31 -13 -14 -21 -14 -42 -5 -36 17 -34 52 4 52 16 0 34 -7
41 -16z m884 0 c19 -18 19 -22 5 -63 -17 -48 4 -89 58 -112 46 -19 63 -43 45
-61 -8 -8 -33 -7 -89 2 -80 13 -112 25 -125 44 -14 20 -8 106 8 139 34 67 66
83 98 51z m-1136 -87 c4 -30 -9 -35 -32 -11 -17 17 -20 27 -9 38 15 14 38 0
41 -27z m1312 -247 c21 -42 20 -60 -5 -60 -17 0 -45 50 -45 80 0 34 28 23 50
-20z m128 -245 c2 -21 -5 -38 -24 -59 -40 -43 -77 -55 -133 -43 -54 11 -71 23
-71 48 0 51 81 89 180 86 42 -2 45 -4 48 -32z m172 11 c0 -18 -7 -25 -27 -29
-35 -7 -39 -3 -25 28 15 33 52 34 52 1z m8 -87 c31 16 50 13 63 -10 9 -18 8
-25 -7 -40 -18 -18 -21 -18 -79 0 -60 19 -74 34 -61 67 5 12 10 11 35 -7 23
-17 33 -19 49 -10z m827 -29 c0 -8 -10 -16 -22 -18 -22 -3 -32 16 -16 32 12
11 38 2 38 -14z m-395 -94 c0 -44 -41 -116 -67 -116 -25 0 -15 57 18 95 33 37
49 44 49 21z m-720 -395 c15 -29 12 -41 -9 -41 -24 0 -45 25 -37 45 8 21 33
19 46 -4z m237 -116 c23 -14 43 -30 43 -34 0 -19 -28 -31 -51 -23 -13 5 -39 7
-56 5 -37 -6 -41 3 -18 47 19 36 27 37 82 5z"/>
<path d="M3880 9905 c0 -10 7 -15 18 -13 21 4 19 22 -2 26 -10 2 -16 -3 -16
-13z"/>
<path d="M5164 9893 c-8 -41 -31 -49 -60 -22 -17 16 -31 20 -56 16 -18 -2 -41
0 -50 5 -26 13 -58 -8 -58 -37 0 -16 14 -36 44 -61 28 -23 46 -48 50 -67 6
-31 23 -57 37 -57 17 0 39 33 39 59 0 57 44 68 65 17 16 -38 41 -52 61 -35 11
9 9 18 -11 53 -16 27 -24 56 -23 84 0 28 -6 50 -16 60 -14 15 -16 13 -22 -15z"/>
<path d="M4627 9871 c-18 -16 -45 -33 -60 -36 -15 -4 -32 -16 -38 -26 -13 -26
5 -25 38 1 14 11 39 20 55 20 31 0 84 43 73 60 -11 17 -33 11 -68 -19z"/>
<path d="M5553 9653 c-7 -2 -13 -11 -13 -20 0 -21 44 -13 48 10 3 17 -10 21
-35 10z"/>
<path d="M7054 9409 c-33 -35 -81 -59 -119 -59 -42 0 -32 -37 25 -90 53 -49
63 -81 39 -133 -10 -21 -6 -34 29 -92 23 -37 61 -82 86 -102 25 -20 46 -40 46
-45 0 -16 93 -118 127 -139 20 -12 36 -34 44 -57 17 -53 34 -69 84 -77 46 -6
85 6 85 28 0 7 -9 31 -20 52 -11 22 -23 58 -27 80 -10 65 -18 75 -67 75 -37 0
-48 5 -70 31 -32 38 -35 97 -7 123 23 21 49 11 75 -28 9 -14 34 -35 56 -46 22
-11 40 -25 40 -30 0 -5 14 -17 31 -25 28 -15 36 -15 92 -1 83 21 88 29 44 70
-30 27 -37 41 -37 70 l0 36 -59 0 c-54 0 -62 3 -85 31 -31 37 -32 53 -6 110
17 39 17 47 5 66 -13 19 -13 27 0 64 19 53 19 93 0 109 -13 10 -23 9 -56 -5
-22 -10 -42 -22 -45 -27 -11 -18 21 -91 47 -107 l28 -17 -30 -28 c-16 -15 -29
-33 -29 -40 0 -7 -8 -21 -19 -30 -17 -15 -22 -15 -52 -2 -19 7 -67 27 -108 42
-40 15 -76 34 -78 42 -3 8 6 25 20 40 21 21 34 25 70 24 53 -3 84 21 54 43
-13 10 -26 10 -52 3 -43 -14 -61 -6 -86 37 -12 19 -26 35 -33 35 -7 0 -25 -14
-42 -31z"/>
<path d="M4565 9370 c-3 -5 -2 -10 4 -10 5 0 13 5 16 10 3 6 2 10 -4 10 -5 0
-13 -4 -16 -10z"/>
<path d="M2060 9341 c0 -6 5 -13 10 -16 6 -3 10 1 10 9 0 9 -4 16 -10 16 -5 0
-10 -4 -10 -9z"/>
<path d="M2677 9322 c-43 -19 -43 -32 -1 -45 16 -6 41 -18 56 -28 28 -21 103
-26 113 -9 10 16 -10 35 -71 70 -29 16 -55 30 -56 29 -2 0 -20 -8 -41 -17z"/>
<path d="M6075 9329 c-12 -19 54 -71 85 -67 38 4 40 45 3 59 -50 19 -80 22
-88 8z"/>
<path d="M7794 9245 c-9 -23 3 -45 26 -45 25 0 37 25 20 45 -16 19 -39 19 -46
0z"/>
<path d="M7644 9236 c-8 -22 -1 -59 13 -63 17 -6 55 35 51 55 -4 22 -56 29
-64 8z"/>
<path d="M6569 9236 c-3 -3 -102 -13 -161 -16 -4 0 -28 -22 -54 -50 -31 -33
-58 -52 -80 -56 -29 -5 -34 -11 -34 -33 0 -46 43 -68 70 -36 7 8 23 15 36 15
32 0 119 -56 135 -88 8 -15 42 -54 77 -87 73 -71 79 -96 30 -137 l-33 -27 51
-53 c66 -68 84 -104 84 -171 0 -72 16 -78 77 -32 67 51 77 48 70 -25 l-5 -59
49 -46 c26 -25 58 -45 70 -45 24 0 130 -65 170 -104 23 -23 28 -24 39 -11 10
12 9 25 -9 66 -26 65 -26 72 2 84 14 6 23 21 25 40 5 44 -19 56 -93 49 -55 -6
-63 -4 -91 19 -42 36 -60 97 -39 136 8 16 16 44 17 62 3 29 -1 34 -30 42 -53
16 -82 50 -82 96 0 26 -7 46 -19 58 -25 24 -41 57 -41 84 0 28 -73 181 -95
199 -9 8 -23 27 -32 44 -30 59 -83 102 -104 82z"/>
<path d="M1943 9173 c-20 -7 -15 -19 12 -31 38 -17 95 -15 95 3 0 27 -67 45
-107 28z"/>
<path d="M3190 9137 c0 -17 20 -37 37 -37 19 0 16 37 -3 44 -24 9 -34 7 -34
-7z"/>
<path d="M7626 9104 c-12 -31 -6 -44 19 -44 30 0 43 24 25 45 -16 20 -36 19
-44 -1z"/>
<path d="M8276 9081 c-14 -21 -39 -49 -55 -61 -38 -26 -39 -52 -6 -92 53 -63
13 -117 -62 -85 -21 8 -50 18 -65 21 -43 10 -88 53 -88 87 0 45 -26 99 -47 99
-10 0 -38 -19 -61 -43 -46 -44 -132 -171 -132 -193 0 -7 11 -30 25 -50 30 -44
30 -49 5 -74 -23 -23 -35 -25 -49 -7 -6 6 -22 26 -36 43 -14 18 -36 34 -49 36
-22 4 -25 1 -31 -34 -8 -43 14 -88 41 -88 32 0 75 -32 95 -72 33 -64 90 -128
114 -128 22 0 61 -35 67 -59 2 -11 -8 -14 -44 -12 -43 2 -49 0 -59 -23 -16
-35 3 -56 51 -56 45 0 230 -84 230 -105 0 -7 -10 -39 -22 -70 -12 -33 -17 -59
-12 -64 5 -5 30 -12 57 -15 44 -7 49 -5 77 26 22 24 30 42 30 70 0 44 -18 64
-70 78 -47 13 -51 30 -12 60 24 20 35 22 103 16 42 -3 84 -3 93 0 25 9 46 58
46 103 0 35 4 43 30 56 39 20 46 40 55 147 7 80 6 87 -13 97 -11 6 -31 11 -44
11 -39 0 -52 16 -53 62 0 32 -5 45 -20 53 -48 24 -48 23 -6 101 l40 74 -20 57
c-29 86 -63 97 -103 34z m-104 -363 c24 -29 52 -66 62 -81 9 -16 32 -45 50
-65 18 -20 40 -59 49 -86 15 -42 15 -51 2 -76 -24 -47 -65 -69 -126 -70 -30 0
-67 0 -83 0 -61 -1 -71 37 -28 114 21 39 34 52 61 59 31 8 33 10 27 39 -3 17
-27 53 -52 80 -40 43 -45 54 -40 80 3 17 6 37 6 44 0 28 29 13 72 -38z"/>
<path d="M3327 9054 c-14 -14 -6 -24 19 -24 16 0 24 5 22 13 -5 14 -31 21 -41
11z"/>
<path d="M1861 8995 c-60 -41 -69 -42 -99 -11 -18 20 -28 23 -50 16 -49 -15
-61 -22 -67 -39 -8 -25 -120 -101 -145 -98 -17 2 -25 -7 -37 -43 -8 -25 -26
-55 -40 -67 -20 -19 -24 -31 -22 -75 2 -55 -8 -101 -43 -203 -29 -86 -33 -91
-81 -114 -44 -21 -117 -110 -117 -143 0 -15 -39 -72 -80 -117 -17 -18 -21 -32
-17 -60 4 -33 -6 -68 -37 -131 -13 -26 -16 -144 -3 -156 11 -12 56 25 63 51 3
14 14 30 24 35 11 6 20 27 24 61 10 72 18 83 77 108 46 20 57 21 95 11 67 -19
82 1 39 52 -34 41 -33 74 5 93 21 11 32 27 40 55 6 24 25 53 46 73 49 44 60
49 74 32 15 -18 7 -43 -17 -52 -38 -14 -45 -59 -13 -88 27 -24 90 -15 137 21
25 19 49 28 77 28 41 1 41 0 71 -61 52 -108 132 -169 150 -114 9 28 31 44 54
36 22 -7 51 -71 51 -113 0 -52 50 -71 85 -32 23 26 45 25 91 -2 29 -17 54 -22
115 -23 64 -1 83 -5 101 -22 37 -33 63 -43 115 -43 27 0 68 -9 93 -21 127 -58
131 -59 190 -37 65 23 110 19 202 -16 34 -13 91 -29 125 -35 74 -14 218 -5
251 15 29 19 28 47 -2 63 -29 16 -62 77 -65 121 -1 15 -15 27 -48 41 -43 19
-53 19 -100 8 -59 -14 -76 -7 -148 63 -22 21 -62 47 -90 57 -27 11 -70 29 -95
40 -25 11 -61 21 -80 21 -21 0 -50 10 -72 25 -22 15 -39 21 -43 15 -8 -13 -52
-13 -61 1 -6 10 -23 9 -103 -7 l-33 -7 7 41 c5 34 3 42 -13 51 -11 6 -22 8
-25 5 -14 -14 -46 9 -52 37 -9 40 3 52 68 64 69 13 74 37 18 98 -39 42 -47 68
-50 160 -1 9 -22 32 -49 51 -30 22 -52 47 -60 69 -7 19 -21 42 -32 52 -25 23
-25 46 0 75 24 28 28 90 5 90 -8 0 -32 -18 -53 -39 -25 -26 -52 -42 -76 -46
-42 -8 -46 -6 -61 38 -14 43 -67 77 -120 77 -32 0 -55 -9 -94 -35z m214 -195
c15 -15 35 -20 72 -20 36 0 55 -5 66 -18 16 -17 15 -20 -8 -42 -32 -30 -32
-58 0 -66 14 -3 32 -4 40 -1 8 4 28 1 44 -4 29 -10 43 -32 46 -72 1 -10 14
-30 29 -44 15 -14 25 -30 23 -37 -2 -6 -10 -28 -17 -48 -13 -35 -16 -37 -64
-40 l-51 -3 3 -52 3 -53 -44 -20 c-93 -44 -99 -43 -169 11 -66 51 -89 57 -143
38 -29 -11 -37 -9 -76 17 -24 16 -57 36 -73 44 -16 8 -31 21 -34 30 -3 8 -14
23 -26 32 -20 16 -20 17 27 60 40 38 47 50 47 82 0 21 -8 51 -17 67 -17 28
-17 31 1 64 22 41 52 52 97 36 48 -16 55 -14 77 23 29 50 103 58 147 16z
m-412 -132 c16 -12 15 -16 -9 -51 -18 -28 -31 -37 -47 -35 -17 2 -22 9 -20 32
2 30 28 66 48 66 6 0 19 -6 28 -12z"/>
<path d="M1926 8664 c-13 -33 -6 -62 20 -79 25 -16 26 -16 21 2 -3 10 -8 33
-12 50 -8 38 -20 50 -29 27z"/>
<path d="M6334 8946 c-3 -8 4 -32 15 -54 11 -22 24 -59 27 -83 10 -58 33 -79
88 -79 25 0 47 4 50 9 4 5 -4 22 -17 38 -32 37 -47 67 -47 92 0 11 -12 28 -26
38 -14 10 -33 26 -42 36 -20 21 -41 22 -48 3z"/>
<path d="M5595 8860 c-8 -14 3 -30 21 -30 8 0 14 9 14 20 0 21 -24 28 -35 10z"/>
<path d="M6112 8798 c-56 -129 -40 -156 83 -141 87 10 101 27 59 76 -16 19
-41 57 -56 86 -16 28 -34 51 -41 51 -7 0 -28 -33 -45 -72z"/>
<path d="M7060 8531 c0 -25 29 -56 42 -43 5 5 8 20 6 33 -4 31 -48 41 -48 10z"/>
<path d="M7287 8353 c-4 -3 -7 -19 -7 -35 0 -16 -7 -45 -15 -65 -19 -45 -19
-67 1 -83 12 -11 14 -25 8 -67 -9 -74 -1 -80 94 -79 72 1 77 3 80 23 2 16 -5
28 -27 41 -31 19 -59 50 -80 89 -9 17 -8 30 5 62 16 42 12 63 -24 104 -16 18
-25 21 -35 10z"/>
<path d="M7707 8186 c-9 -22 19 -42 37 -26 19 15 10 40 -14 40 -10 0 -20 -6
-23 -14z"/>
<path d="M6690 8090 c0 -11 7 -23 15 -27 21 -8 28 1 20 26 -8 27 -35 27 -35 1z"/>
<path d="M6894 8096 c-18 -48 31 -136 76 -136 29 0 26 33 -9 84 -41 59 -59 73
-67 52z"/>
<path d="M1492 8045 c-26 -11 -33 -20 -30 -37 3 -26 39 -36 56 -16 14 18 26
68 16 68 -5 -1 -24 -7 -42 -15z"/>
<path d="M7877 8043 c-4 -3 -7 -17 -7 -29 0 -34 -26 -55 -54 -44 -13 5 -27 6
-30 3 -10 -11 -6 -72 5 -79 6 -3 22 -31 35 -60 16 -37 37 -63 66 -84 23 -17
48 -43 55 -58 36 -72 74 -126 135 -191 l66 -71 34 15 c38 15 128 21 170 10 40
-11 78 17 78 55 0 25 -7 33 -36 47 -22 11 -41 30 -49 50 -25 60 -84 67 -143
18 -37 -31 -41 -31 -93 -2 -50 28 -51 42 -2 42 33 0 38 4 50 35 14 35 13 35
-34 87 -27 28 -66 59 -90 68 -31 12 -50 30 -77 72 -20 30 -36 63 -36 73 0 20
-33 53 -43 43z"/>
<path d="M8030 8005 c0 -9 5 -15 11 -13 6 2 11 8 11 13 0 5 -5 11 -11 13 -6 2
-11 -4 -11 -13z"/>
<path d="M1304 7855 c-4 -8 0 -29 7 -47 11 -27 10 -32 -6 -44 -21 -16 -65 -19
-65 -5 0 13 -65 81 -78 81 -17 0 -15 -10 5 -32 15 -17 15 -20 -5 -48 -42 -57
-17 -100 40 -67 l28 16 0 -32 c0 -18 -9 -45 -20 -62 -11 -16 -20 -38 -20 -47
0 -23 -11 -23 -43 2 -14 11 -30 20 -35 20 -24 0 -37 -36 -37 -104 0 -58 -3
-71 -17 -74 -31 -6 -39 31 -19 89 19 58 15 95 -22 180 -20 48 -30 53 -68 34
-37 -20 -46 -14 -31 20 17 38 15 53 -13 81 -33 33 -55 18 -55 -36 0 -22 -5
-40 -13 -43 -7 -3 -28 -42 -46 -86 -39 -101 -57 -227 -41 -288 15 -52 126
-193 185 -233 23 -16 45 -36 48 -44 7 -18 92 -72 172 -109 33 -15 80 -38 105
-51 144 -74 422 -161 639 -202 41 -7 95 -20 120 -29 86 -28 336 -76 491 -95
85 -11 164 -22 175 -25 11 -3 97 -10 190 -15 240 -14 427 -35 505 -58 29 -9
138 -15 489 -26 32 -1 46 4 55 17 9 15 7 22 -13 38 -13 10 -37 19 -55 19 -42
1 -69 18 -105 65 -35 46 -39 87 -14 140 12 26 14 38 6 46 -15 15 -111 48 -139
49 -20 0 -59 -37 -109 -103 -11 -14 -32 -29 -47 -33 -25 -5 -28 -3 -28 19 0
14 11 39 25 55 14 17 29 51 34 76 8 45 7 47 -23 68 -17 12 -33 23 -35 24 -2 2
-5 24 -6 49 -3 42 -26 85 -46 85 -4 0 -12 -14 -18 -31 -11 -31 -11 -31 -37
-14 -21 13 -38 16 -76 11 l-49 -7 -15 38 c-32 82 -48 94 -96 72 -30 -15 -36
-14 -73 2 -62 28 -75 25 -75 -17 0 -31 -4 -37 -37 -51 -21 -8 -41 -21 -46 -28
-4 -8 -31 -21 -60 -31 -28 -9 -57 -21 -63 -25 -6 -5 -14 -5 -19 -1 -4 4 -5 -8
-1 -27 13 -71 59 -89 123 -50 44 27 156 28 185 2 23 -20 24 -80 2 -112 -15
-21 -22 -23 -69 -17 -29 3 -83 16 -121 28 -82 26 -233 27 -272 2 -16 -11 -27
-12 -42 -4 -39 21 -53 77 -25 100 25 21 19 92 -9 120 -32 29 -53 20 -62 -27
-11 -62 -18 -69 -43 -44 -17 17 -21 33 -21 80 0 52 3 61 25 75 27 18 33 57 12
75 -8 6 -33 18 -56 26 -24 8 -57 26 -75 41 -17 14 -51 38 -75 54 l-45 28 -50
-20 c-75 -30 -91 -32 -125 -12 -38 23 -43 36 -24 63 11 16 23 21 46 19 31 -3
32 -2 34 42 3 69 -3 85 -43 103 -36 18 -37 18 -61 -5 -36 -33 -47 -57 -53
-113 -4 -45 -8 -50 -29 -50 -21 0 -26 8 -40 59 -14 51 -20 61 -46 69 -43 14
-55 26 -55 56 0 52 -11 73 -34 66 -53 -17 -72 -16 -90 4 -41 45 -68 8 -41 -55
8 -21 12 -41 8 -44 -5 -4 -33 -10 -63 -14 -55 -6 -56 -5 -85 32 -26 32 -30 46
-32 108 -2 60 1 75 17 89 28 26 25 60 -7 83 -48 32 -53 34 -59 17z m460 -501
c9 -8 16 -22 16 -30 0 -19 -36 -54 -55 -54 -19 0 -65 44 -65 63 0 36 74 52
104 21z m-564 -66 c6 -24 24 -69 41 -102 16 -32 28 -60 26 -63 -2 -2 -28 9
-58 24 l-54 28 3 55 c5 107 23 132 42 58z m904 -34 c7 -19 -1 -34 -19 -34 -18
0 -28 17 -21 35 7 20 32 19 40 -1z m935 -241 c0 -25 -1 -25 -8 -8 -5 11 -7 23
-4 28 8 14 13 7 12 -20z m108 -10 c5 -14 -26 -45 -37 -38 -12 8 11 56 24 52 5
-2 11 -8 13 -14z m218 -19 c34 -13 61 -113 35 -129 -6 -3 -22 3 -36 14 -15 12
-34 21 -43 21 -45 0 -54 49 -13 79 30 23 34 24 57 15z m-200 -140 c22 -9 36
-48 29 -83 -7 -34 -50 -57 -89 -47 -22 6 -25 12 -25 51 0 64 36 98 85 79z
m505 -120 c20 -53 -36 -107 -76 -74 -20 17 -18 43 7 74 26 34 57 34 69 0z"/>
<path d="M1810 7735 c-14 -8 -38 -14 -53 -15 -34 0 -44 -23 -27 -56 21 -38 48
-40 84 -5 17 17 46 36 64 42 22 7 32 17 30 28 -4 21 -65 25 -98 6z"/>
<path d="M6930 7721 c-19 -37 -12 -77 17 -96 36 -24 111 -32 117 -14 29 91 7
129 -74 129 -38 0 -52 -4 -60 -19z"/>
<path d="M2110 7600 c-38 -38 -15 -110 36 -110 10 0 36 18 57 39 41 42 41 40
-23 73 -43 22 -46 22 -70 -2z"/>
<path d="M7376 7583 c-5 -12 1 -25 19 -40 47 -41 86 -22 61 28 -15 31 -70 39
-80 12z"/>
<path d="M6882 7538 c-26 -26 -5 -98 29 -98 25 0 23 57 -3 93 -11 14 -16 15
-26 5z"/>
<path d="M8765 7516 c-15 -22 -12 -56 5 -56 14 0 40 37 40 58 0 29 -26 28 -45
-2z"/>
<path d="M3752 7468 c-14 -14 -16 -57 -3 -77 7 -10 19 -12 47 -7 72 14 78 13
94 -21 25 -54 102 -72 108 -25 5 31 -21 58 -67 72 -20 7 -61 25 -92 41 -64 33
-70 34 -87 17z"/>
<path d="M2572 7450 c-31 -13 -38 -37 -17 -60 24 -26 60 -25 79 2 20 28 20 33
0 52 -17 18 -29 19 -62 6z"/>
<path d="M3100 7442 c0 -13 23 -32 37 -32 11 0 11 5 3 20 -10 19 -40 28 -40
12z"/>
<path d="M8151 7354 c-29 -36 -26 -65 9 -109 37 -46 38 -68 4 -116 -33 -48
-21 -79 29 -79 38 0 57 15 57 46 0 19 7 23 48 29 26 3 72 15 102 25 78 27 99
64 47 87 -12 6 -47 29 -77 52 -31 23 -66 41 -80 41 -14 0 -42 11 -62 25 -46
31 -52 31 -77 -1z"/>
<path d="M8433 7373 c-7 -2 -13 -13 -13 -24 0 -16 7 -19 40 -19 39 0 49 -6 87
-53 15 -19 50 -11 64 14 9 18 -11 37 -88 77 -22 12 -68 15 -90 5z"/>
<path d="M3332 7298 c3 -7 16 -20 31 -28 22 -12 29 -12 39 -2 11 11 9 16 -6
28 -25 18 -69 19 -64 2z"/>
<path d="M3500 7241 c-29 -55 4 -101 72 -101 48 0 49 13 3 74 -39 50 -58 57
-75 27z"/>
<path d="M7466 7228 c-28 -39 -20 -65 32 -103 78 -57 103 -41 62 40 -11 22
-20 45 -20 52 0 12 -30 33 -49 33 -5 0 -17 -10 -25 -22z"/>
<path d="M3991 7163 c-12 -10 -34 -40 -49 -68 -36 -67 -68 -78 -116 -41 -64
48 -146 87 -164 77 -28 -15 -54 -49 -47 -60 3 -6 26 -11 51 -11 58 0 102 -23
119 -63 16 -40 47 -68 71 -68 80 1 154 11 183 26 25 13 46 16 87 11 30 -3 54
-4 54 0 0 3 -26 33 -57 66 -40 41 -61 73 -68 101 -12 47 -31 56 -64 30z"/>
<path d="M2683 7125 c-18 -8 -33 -18 -33 -23 0 -5 -11 -20 -25 -34 -30 -30
-24 -65 13 -75 27 -6 52 16 52 47 0 9 14 29 30 45 52 50 32 70 -37 40z"/>
<path d="M8733 7087 c-34 -29 -81 -65 -104 -82 -73 -52 -79 -67 -100 -236 -10
-85 -25 -182 -34 -216 -8 -35 -20 -109 -26 -165 -5 -57 -19 -143 -29 -193 -11
-49 -26 -147 -35 -217 -8 -70 -22 -160 -30 -200 -9 -40 -22 -128 -30 -195 -8
-68 -21 -149 -29 -180 -8 -32 -20 -105 -26 -163 -6 -58 -20 -147 -30 -198 -11
-51 -26 -150 -35 -220 -8 -70 -24 -170 -35 -222 -11 -52 -24 -140 -30 -195 -6
-54 -17 -124 -25 -155 -8 -30 -21 -111 -29 -180 -8 -69 -22 -157 -30 -195 -8
-39 -22 -126 -31 -195 -8 -69 -24 -168 -35 -220 -10 -52 -22 -129 -25 -170 -3
-41 -15 -118 -25 -170 -11 -52 -27 -153 -35 -225 -9 -71 -23 -161 -30 -200
-27 -127 -17 -152 47 -119 32 16 122 93 145 124 17 24 60 229 73 345 6 55 19
147 30 205 11 58 26 164 35 235 9 72 22 159 31 194 8 36 19 110 24 165 6 56
19 144 30 196 11 52 24 140 30 195 6 55 22 161 35 235 13 74 27 167 30 205 4
39 15 104 25 145 10 41 23 119 29 172 6 53 18 125 26 161 8 35 24 126 35 203
11 76 29 182 39 234 11 52 23 122 26 155 3 33 15 97 25 142 11 45 24 121 30
170 6 48 17 115 25 149 8 33 26 136 40 228 14 92 30 178 35 190 4 13 13 67 20
122 6 54 20 135 31 180 22 88 30 205 14 210 -5 1 -38 -21 -72 -49z"/>
<path d="M7833 7094 c-3 -9 -1 -31 5 -48 18 -50 15 -61 -28 -90 -28 -18 -62
-29 -107 -35 -51 -6 -70 -13 -85 -31 -29 -36 -18 -45 55 -43 56 1 77 7 136 39
97 52 124 79 116 113 -19 76 -76 136 -92 95z"/>
<path d="M4301 7057 c-7 -9 -11 -34 -9 -58 3 -37 8 -47 37 -67 55 -36 67 -28
63 48 -2 36 -7 68 -11 72 -15 17 -67 20 -80 5z"/>
<path d="M4746 7061 c-3 -4 -6 -37 -8 -73 -2 -53 2 -70 21 -96 26 -37 56 -42
65 -9 10 38 7 58 -20 118 -25 54 -47 78 -58 60z"/>
<path d="M853 6934 c-9 -23 4 -151 21 -205 8 -26 24 -105 36 -175 11 -71 27
-151 35 -179 8 -27 21 -95 29 -150 8 -55 21 -118 29 -140 8 -22 18 -70 22
-105 4 -36 17 -108 30 -160 13 -52 29 -131 35 -175 7 -44 20 -111 30 -150 10
-38 23 -106 30 -150 6 -44 20 -111 30 -150 10 -38 24 -104 29 -147 6 -42 19
-109 30 -150 11 -40 25 -109 31 -153 6 -44 20 -111 30 -150 10 -38 24 -105 29
-148 6 -44 20 -113 30 -155 11 -43 22 -102 26 -132 4 -30 17 -104 31 -165 13
-60 30 -156 39 -211 8 -56 20 -115 25 -130 6 -15 18 -76 26 -134 8 -58 21
-128 29 -155 8 -28 21 -98 30 -155 9 -58 24 -141 34 -185 11 -44 22 -107 26
-140 20 -173 58 -261 137 -313 94 -62 114 -33 79 116 -11 48 -25 139 -31 202
-6 63 -18 140 -25 170 -8 30 -23 129 -34 220 -12 91 -30 210 -40 265 -10 55
-22 136 -26 180 -4 44 -17 132 -30 195 -13 63 -26 153 -30 200 -4 47 -15 126
-25 175 -10 50 -26 153 -35 230 -9 77 -23 169 -31 205 -8 35 -21 125 -29 200
-8 75 -21 165 -29 201 -9 36 -22 126 -30 200 -9 74 -22 172 -31 219 -8 47 -22
143 -30 215 -8 72 -21 162 -29 200 -8 39 -21 133 -30 210 -8 77 -22 169 -30
205 -8 36 -17 97 -21 135 -10 114 -26 219 -37 238 -5 10 -26 26 -46 34 -20 8
-48 23 -62 33 -14 9 -43 23 -65 30 -22 7 -44 16 -50 20 -10 8 -148 80 -153 80
-1 0 -5 -7 -9 -16z"/>
<path d="M4156 6925 c-9 -14 -16 -35 -16 -49 0 -30 77 -144 103 -152 34 -11
43 11 25 63 -9 27 -21 66 -27 88 -7 27 -20 45 -40 57 -29 16 -30 16 -45 -7z"/>
<path d="M7380 6878 c-22 -37 -26 -73 -8 -84 23 -14 126 -8 152 10 35 22 33
38 -9 75 -27 24 -45 31 -75 31 -35 0 -43 -5 -60 -32z"/>
<path d="M4840 6850 c-13 -8 -13 -11 2 -26 20 -20 51 -11 46 13 -4 21 -27 27
-48 13z"/>
<path d="M4340 6625 c-10 -12 -10 -21 -2 -40 13 -29 52 -34 76 -9 19 18 19 20
6 45 -13 23 -62 26 -80 4z"/>
<path d="M7675 6593 c-27 -8 -55 -19 -61 -24 -6 -5 -42 -16 -80 -24 -38 -9
-94 -24 -125 -35 -30 -10 -97 -26 -147 -35 -50 -8 -110 -22 -134 -31 -24 -8
-79 -19 -123 -25 -44 -5 -109 -18 -145 -29 -36 -11 -114 -24 -175 -30 -60 -6
-145 -17 -189 -25 -43 -8 -91 -15 -106 -15 -15 0 -38 -8 -50 -18 -21 -17 -23
-29 -27 -133 -2 -63 -12 -186 -23 -275 -11 -88 -24 -237 -30 -330 -17 -279
-30 -442 -45 -574 -8 -69 -19 -237 -25 -375 -6 -137 -17 -315 -25 -395 -19
-201 -24 -275 -35 -590 -6 -151 -15 -333 -20 -405 -27 -384 -56 -1128 -45
-1158 4 -8 13 -18 22 -21 21 -8 182 12 273 35 42 10 116 23 165 29 50 5 113
17 140 25 28 9 93 23 145 31 52 8 131 26 175 38 44 13 98 28 120 34 86 22 187
66 201 87 8 12 19 70 24 131 6 60 17 161 25 224 8 63 19 192 25 285 6 94 19
233 30 310 11 77 24 208 30 292 6 83 17 188 25 234 8 46 20 155 26 244 5 88
21 239 34 335 13 96 29 245 35 330 6 85 20 209 30 275 10 66 21 167 25 223 3
57 15 152 26 210 10 59 26 188 35 287 8 99 24 230 34 290 10 61 21 155 25 210
8 132 23 238 41 304 20 70 13 101 -24 100 -15 0 -49 -7 -77 -16z"/>
<path d="M4038 6579 c-38 -22 -5 -79 36 -63 21 8 21 60 0 68 -19 7 -15 8 -36
-5z"/>
<path d="M1960 6465 c-10 -12 -11 -27 -2 -68 16 -75 21 -130 32 -327 5 -96 16
-222 24 -280 8 -58 22 -204 30 -325 17 -238 20 -266 41 -425 8 -58 19 -179 25
-270 5 -91 16 -203 25 -250 8 -47 20 -152 25 -235 6 -82 19 -213 30 -290 11
-77 24 -198 30 -270 11 -128 36 -336 45 -365 2 -8 11 -94 19 -190 9 -96 25
-228 36 -293 11 -66 20 -140 20 -165 1 -72 36 -326 49 -350 16 -30 69 -67 116
-82 22 -7 49 -19 60 -26 39 -25 308 -112 435 -140 195 -43 269 -55 394 -65 75
-5 146 -7 156 -4 28 9 32 35 21 122 -6 43 -17 182 -26 308 -8 127 -24 322 -35
435 -11 113 -24 303 -30 422 -5 119 -17 277 -25 350 -8 73 -19 232 -25 353
-11 228 -20 398 -46 813 -16 274 -45 1300 -37 1331 9 34 -38 71 -91 71 -24 0
-80 7 -123 15 -43 9 -141 22 -217 30 -77 8 -176 24 -220 34 -45 11 -117 24
-161 31 -44 6 -118 22 -165 35 -47 13 -107 27 -135 31 -27 4 -81 18 -119 30
-80 28 -138 31 -156 9z"/>
<path d="M4547 5520 c-73 -12 -295 -75 -333 -95 -16 -8 -44 -18 -62 -21 -30
-6 -72 -44 -72 -66 0 -24 -67 -102 -115 -134 -38 -26 -67 -37 -109 -41 -31 -3
-61 -12 -67 -19 -20 -25 0 -63 56 -104 56 -41 76 -79 56 -103 -26 -33 -109
-66 -185 -76 -64 -8 -83 -14 -107 -37 -16 -15 -31 -35 -34 -45 -3 -9 13 -57
37 -106 l42 -88 6 -340 6 -340 32 -80 c60 -148 100 -213 214 -348 40 -47 59
-78 63 -105 18 -123 49 -234 81 -290 18 -30 28 -68 34 -125 21 -194 132 -358
328 -484 79 -51 87 -94 21 -108 -41 -9 -59 -40 -59 -102 0 -103 32 -136 132
-134 35 0 89 5 122 11 68 11 96 1 96 -34 0 -48 -129 -233 -244 -350 -50 -50
-56 -76 -27 -105 25 -25 94 -36 129 -21 30 13 128 124 155 175 9 19 26 39 37
45 36 19 50 -23 56 -161 3 -68 7 -134 10 -147 6 -29 60 -62 101 -62 43 0 63
30 63 95 -1 98 -38 410 -54 447 -20 47 -21 102 -1 118 12 10 45 11 135 7 l119
-7 20 26 c17 21 21 41 21 96 0 60 -3 72 -25 94 -13 13 -38 27 -56 31 -60 12
-49 42 36 98 116 76 221 195 275 312 44 95 80 235 87 345 7 92 25 126 84 159
40 22 49 37 130 198 96 193 159 366 159 439 0 45 -6 58 -54 126 -18 25 -18 34
-8 121 15 114 15 316 2 408 -29 201 -147 434 -290 577 -142 142 -343 256 -557
316 -115 32 -143 36 -278 39 -82 2 -176 0 -208 -5z m338 -105 c239 -32 473
-141 616 -287 59 -60 142 -174 171 -233 34 -69 75 -197 87 -275 17 -105 14
-351 -4 -377 -9 -12 -22 -20 -30 -17 -15 6 -68 127 -80 181 -7 37 -41 83 -60
83 -17 0 -25 -32 -25 -99 0 -41 9 -72 40 -138 43 -92 50 -142 24 -168 -13 -13
-27 -14 -78 -8 -33 4 -171 8 -306 8 l-245 0 -67 -37 c-62 -34 -72 -36 -159
-37 -94 0 -114 5 -161 44 -15 13 -62 35 -105 49 -70 24 -98 28 -263 33 -102 3
-191 10 -197 16 -25 19 -15 79 17 112 23 24 33 46 40 93 6 34 14 72 19 86 5
13 14 48 20 78 20 111 133 276 222 324 27 15 55 19 144 19 101 0 115 -3 170
-29 69 -34 107 -37 135 -11 34 31 26 69 -22 108 -76 62 -147 99 -245 128 -114
34 -255 39 -360 13 -70 -17 -93 -14 -93 14 0 39 113 116 208 141 45 13 56 37
27 61 -55 45 64 101 264 124 156 18 163 18 296 1z m-627 -510 c2 -14 -7 -26
-29 -39 -56 -33 -100 -78 -151 -155 -28 -42 -73 -102 -100 -133 -27 -32 -53
-70 -58 -85 -19 -56 -41 -190 -47 -290 -6 -109 -20 -139 -60 -131 -37 7 -46
68 -39 285 l6 203 -25 47 c-30 56 -33 108 -7 121 9 5 41 12 71 15 31 4 69 16
90 30 206 135 249 157 301 154 37 -2 46 -6 48 -22z m-88 -890 c21 -25 7 -49
-32 -59 -27 -7 -41 -6 -52 4 -21 17 -20 26 4 50 23 23 62 26 80 5z m221 -5
c37 -20 17 -50 -33 -50 -12 0 -41 -11 -65 -25 -35 -21 -47 -24 -64 -15 -29 16
-18 34 26 41 21 4 45 15 54 26 25 32 51 39 82 23z m990 -11 c46 -46 -4 -78
-56 -34 -29 24 -29 25 -11 40 27 20 42 19 67 -6z m139 7 c0 -2 3 -12 6 -21 5
-13 2 -16 -17 -13 -31 4 -39 38 -10 38 12 0 21 -2 21 -4z m-272 -42 c30 -8 27
-50 -3 -47 -27 2 -95 20 -102 26 -21 22 50 35 105 21z m390 -22 c8 -11 12 -39
10 -76 -2 -47 0 -61 15 -70 24 -15 39 9 32 52 -7 36 15 82 39 82 28 0 49 -39
48 -90 -2 -81 -28 -162 -92 -288 -33 -65 -60 -123 -60 -130 0 -7 -22 -28 -49
-47 -53 -39 -91 -101 -91 -151 0 -16 -9 -82 -20 -146 -16 -93 -28 -135 -60
-198 -74 -148 -255 -300 -356 -300 -47 0 -59 -10 -68 -61 -3 -20 -18 -52 -32
-70 -13 -19 -35 -50 -47 -69 -35 -55 -65 -52 -132 11 -64 60 -123 145 -137
196 -8 28 -5 50 11 102 11 36 22 82 26 102 3 22 17 46 35 63 37 32 38 55 5 86
-60 57 -21 79 130 72 95 -3 117 -1 163 17 101 40 152 20 152 -59 0 -20 6 -45
14 -56 22 -29 47 -7 67 58 9 31 34 84 55 119 27 46 39 77 42 116 6 69 -11 107
-63 143 -24 16 -66 59 -95 95 -64 80 -95 105 -131 105 -23 0 -32 -8 -56 -52
-23 -44 -35 -55 -68 -64 -48 -15 -135 -17 -167 -5 -27 10 -138 116 -138 132 0
6 8 23 18 37 30 43 34 61 41 171 7 100 9 105 39 132 18 16 42 29 53 29 26 0
89 -61 89 -86 0 -22 28 -54 47 -54 8 0 27 14 43 32 l29 31 70 -13 c65 -12 133
-10 206 5 26 6 33 3 45 -19 7 -15 24 -29 36 -32 34 -9 57 -39 49 -64 -4 -12
-29 -37 -56 -57 -27 -19 -49 -39 -49 -44 0 -18 44 -27 72 -15 46 19 107 109
119 173 6 32 22 76 35 99 13 22 24 48 24 57 0 31 84 30 108 -1z m-1754 -8 c20
-20 22 -107 2 -123 -18 -15 -31 2 -46 62 -10 37 -10 50 0 62 16 19 25 19 44
-1z m639 -112 c48 -49 11 -138 -71 -167 -88 -31 -94 -35 -90 -53 2 -9 13 -18
25 -20 30 -4 45 -26 41 -58 -2 -20 -14 -34 -43 -50 -22 -13 -53 -30 -68 -39
-63 -36 -114 -17 -174 66 -37 51 -43 89 -14 89 66 0 69 43 7 94 -49 40 -61 64
-51 103 6 26 9 27 87 7 21 -5 38 1 75 26 48 32 49 32 151 28 89 -4 106 -8 125
-26z m67 -312 c0 -11 -4 -20 -9 -20 -14 0 -23 18 -16 30 10 17 25 11 25 -10z
m496 -117 c13 -16 46 -54 74 -86 50 -58 62 -93 35 -103 -8 -3 -67 1 -131 10
-147 20 -388 21 -469 1 -156 -37 -179 6 -54 105 58 46 83 49 149 19 25 -11 65
-23 90 -26 39 -4 55 0 115 33 38 21 77 46 87 56 28 28 76 23 104 -9z m-792
-145 c8 -13 20 -63 26 -113 12 -95 55 -210 85 -221 8 -4 29 -1 46 6 37 16 40
13 58 -70 15 -69 7 -90 -38 -90 -37 1 -64 18 -131 85 -69 67 -133 186 -151
280 -11 55 -10 63 10 103 18 35 26 42 51 42 20 0 34 -8 44 -22z m620 -140 c27
-15 8 -27 -60 -38 -84 -14 -120 -12 -139 6 -19 19 -6 40 28 47 32 7 149 -4
171 -15z"/>
<path d="M4323 1200 c-19 -8 -23 -17 -23 -57 0 -26 -9 -77 -20 -111 -25 -79
-26 -147 -4 -156 27 -11 91 -6 102 7 5 6 12 23 14 36 1 13 10 29 19 34 14 8
28 0 75 -41 33 -29 71 -54 89 -58 43 -8 98 -1 102 12 2 7 -15 33 -37 59 -64
74 -72 89 -61 117 5 14 23 31 40 38 36 14 79 76 64 91 -5 5 -26 12 -46 16 -34
5 -41 2 -88 -46 -40 -41 -57 -51 -78 -49 -25 3 -26 6 -23 51 3 43 1 48 -23 57
-32 12 -72 12 -102 0z"/>
<path d="M5260 1176 c-36 -13 -82 -31 -104 -41 -37 -16 -39 -16 -62 6 -22 21
-36 23 -148 26 -89 2 -127 -1 -134 -10 -17 -20 -42 -95 -65 -191 l-21 -89 23
-18 c28 -23 79 -25 109 -3 16 11 22 25 22 53 0 43 11 56 55 67 17 4 38 11 48
16 18 9 18 11 -3 33 -13 14 -20 33 -18 47 3 20 8 23 46 22 23 0 48 -6 53 -11
16 -16 1 -51 -26 -66 l-24 -12 65 -72 c74 -82 98 -93 212 -93 81 0 112 11 112
40 0 26 -29 40 -85 40 -40 0 -52 5 -81 34 -43 43 -44 74 -3 114 44 43 95 66
128 57 14 -4 42 -8 61 -8 29 -2 36 2 44 25 7 19 6 31 -4 42 -20 25 -122 20
-200 -8z"/>
<path d="M2290 862 c0 -5 20 -27 45 -50 25 -22 45 -45 45 -50 0 -16 173 -147
270 -204 128 -75 192 -106 340 -166 354 -142 620 -203 1140 -257 121 -12 574
-35 710 -35 328 0 692 40 1085 120 329 67 789 224 1051 360 166 85 203 107
241 141 19 16 39 29 46 29 7 0 4 5 -6 11 -22 13 -71 3 -112 -21 -16 -10 -48
-22 -70 -26 -22 -3 -60 -17 -85 -29 -25 -12 -63 -26 -85 -30 -22 -4 -58 -15
-80 -25 -22 -10 -67 -23 -100 -30 -33 -6 -82 -20 -110 -30 -27 -11 -82 -24
-120 -30 -39 -5 -90 -16 -113 -24 -24 -9 -96 -23 -160 -31 -64 -9 -142 -23
-173 -31 -31 -7 -132 -21 -225 -29 -93 -9 -214 -22 -269 -31 -74 -11 -214 -17
-535 -21 -456 -5 -781 6 -950 32 -52 8 -153 19 -225 25 -71 6 -166 19 -210 30
-44 10 -127 26 -185 34 -115 17 -205 37 -489 112 -52 14 -103 30 -114 35 -10
6 -47 19 -81 29 -71 20 -152 52 -216 85 -25 12 -56 26 -70 30 -14 4 -37 16
-51 26 -14 10 -38 21 -55 25 -16 4 -41 13 -56 21 -16 7 -28 10 -28 5z"/>
</g>
</svg>
